PathFileType	4	(X/Y/Z)	C:\Users\u0145647\OneDrive - KU Leuven\KU Leuven\c3d2osim\CP4\T0\Data\Processed\ViconC3D_CP4_2\CP4_T0_06_gapFilled.trc
DataRate	CameraRate	NumFrames	NumMarkers	Units	OrigDataRate	OrigDataStartFrame	OrigNumFrames
100.000000	100.000000	6	47	mm	100.000000	95	756
Frame#	Time	C7			T10			CLAV			STRN			LSHO			RSHO			RBAK			LASI			RASI			LPSI			RPSI			LLAT			RLAT			LF1			LF2			LF3			LTHI			LKNE			LMEK			RF1			RF2			RF3			RTHI			RKNE			RMEK			LT1			LT2			LT3			LTIB			LANK			LMM			RT1			RT2			RT3			RTIB			RANK			RMM			LHEE			LSTL			LLCA			LTOE			LCM5			RHEE			RSTL			RLCA			RTOE			RCM5
		X1	Y1	Z1	X2	Y2	Z2	X3	Y3	Z3	X4	Y4	Z4	X5	Y5	Z5	X6	Y6	Z6	X7	Y7	Z7	X8	Y8	Z8	X9	Y9	Z9	X10	Y10	Z10	X11	Y11	Z11	X12	Y12	Z12	X13	Y13	Z13	X14	Y14	Z14	X15	Y15	Z15	X16	Y16	Z16	X17	Y17	Z17	X18	Y18	Z18	X19	Y19	Z19	X20	Y20	Z20	X21	Y21	Z21	X22	Y22	Z22	X23	Y23	Z23	X24	Y24	Z24	X25	Y25	Z25	X26	Y26	Z26	X27	Y27	Z27	X28	Y28	Z28	X29	Y29	Z29	X30	Y30	Z30	X31	Y31	Z31	X32	Y32	Z32	X33	Y33	Z33	X34	Y34	Z34	X35	Y35	Z35	X36	Y36	Z36	X37	Y37	Z37	X38	Y38	Z38	X39	Y39	Z39	X40	Y40	Z40	X41	Y41	Z41	X42	Y42	Z42	X43	Y43	Z43	X44	Y44	Z44	X45	Y45	Z45	X46	Y46	Z46	X47	Y47	Z47

95	0.94	2620	1429.5	-272.88	2656.1	1168.4	-235.89	NaN	NaN	NaN	NaN	NaN	NaN	2591.1	1390.8	-50.417	2567.7	1366.1	-458.71	2656.6	1336.1	-390.6	2473.3	907.69	-178.15	2533.5	912.27	-369.91	2651.4	952.31	-183.67	2674.3	964.6	-253.61	2516.2	976.58	-106.35	2595.8	987.14	-392.54	2405.1	693.37	-96.248	2440	725.35	-91.737	2432.7	673.54	-86.134	NaN	NaN	NaN	2314.9	511.62	-128.53	NaN	NaN	NaN	2619.1	635.82	-388.44	2596	666.91	-393.43	2656.5	672.84	-387.08	2617.5	571.67	-422.38	2605.1	448.82	-344.1	NaN	NaN	NaN	2324.1	331.63	-99.225	2291	379.15	-119.18	2339.3	373.82	-101.48	2249.8	277.46	-86.729	2293.5	95.393	-121.54	2287.7	105.48	-209.65	2687.9	322.84	-369.05	2649.3	350.09	-350.46	2689.5	375.78	-371.26	2699.4	251.54	-411.36	2811.4	107.55	-365.92	2805.6	117.3	-277.79	2341	65.702	-164.68	2282.4	75.148	-205.42	2282.8	68.729	-127.08	2166.8	86.166	-171.51	2173.2	79.001	-127.14	2864.7	117.04	-330.28	2818.9	83.631	-283.52	2812.9	81.684	-362.77	2698.9	53.578	-321.39	2720.8	41.791	-376.86
96	0.95	2611.3	1428.9	-270.27	2647.1	1167.7	-233.9	NaN	NaN	NaN	NaN	NaN	NaN	2579.6	1389.3	-48.288	2561.1	1366.1	-457.03	2649.3	1336	-387.92	2463.1	907.5	-179.08	2525.8	911.77	-370.1	2641.6	951.32	-182.78	2665.4	963.54	-252.42	2505.6	975.93	-106.59	2589.7	987.16	-392.31	2394.5	694.49	-97.587	2429.2	725.43	-92.505	2422.3	673.76	-86.618	NaN	NaN	NaN	2304.6	511.45	-128.71	NaN	NaN	NaN	2611.7	634.9	-387.88	2588.3	665.71	-392.58	2649.2	671.85	-386.61	2609.6	570.81	-422.09	2598.5	447.73	-343.75	NaN	NaN	NaN	2309.5	331.32	-99.153	2277.9	379.73	-119.09	2325.6	372.83	-101.47	2233.6	279.04	-86.791	2271.9	95.846	-121.47	2266.3	106.05	-209.65	2683.2	322.97	-368.67	2644.1	349.34	-349.66	2684	375.8	-370.86	2695.8	252.09	-410.98	2810	109.58	-365.67	2803.9	119.19	-277.51	2318.6	64.947	-164.75	2260.2	76.019	-205.62	2260.5	69.454	-126.93	2144.8	89.644	-171.06	2151	82.525	-126.57	2863.1	119.96	-329.9	2817.4	85.314	-283.38	2812	83.91	-362.45	2698.5	53.599	-321.27	2720.5	42.214	-376.59
97	0.96	2602.4	1428.2	-267.53	2638	1167	-231.7	NaN	NaN	NaN	2462.3	1191.8	-252.53	2567.7	1387.6	-45.991	2554.6	1366.1	-455.14	2642	1336	-385.08	2452.7	907.38	-180.7	2517.7	911.15	-370.09	2631.6	950.21	-181.81	2656.3	962.41	-251.08	2493.8	974.56	-106.21	2581.6	986.3	-391.37	2383.5	693.4	-98.51	2418.1	724.96	-93.227	2411.3	673.38	-87.167	NaN	NaN	NaN	2294	511.05	-129.09	NaN	NaN	NaN	2604.4	634.01	-387.54	2581	665.02	-391.93	2641.7	670.98	-386.12	2602	569.89	-421.73	2592	446.75	-343.58	NaN	NaN	NaN	2295.4	330.87	-98.963	2266	379.6	-119.37	2312.8	372.24	-101.16	2218.5	280.59	-86.578	2252.8	96.23	-121.28	2247.2	106.58	-209.63	2678.5	323.19	-368.31	2639.3	348.52	-349.86	2678.3	375.81	-370.56	2692.1	252.35	-410.46	2808.4	111.55	-365.53	2802.1	121.13	-277.29	2298.9	64.464	-164.7	2240.5	76.541	-205.49	2240.8	69.949	-126.79	2125.3	92.14	-170.74	2131.7	85.234	-126.29	2861.3	122.79	-329.5	2816.1	87.379	-283.22	2810.9	85.862	-362.27	2697.9	53.657	-321.14	2720.2	42.588	-376.41
98	0.97	2593.5	1427.6	-264.56	2628.7	1166.2	-229.38	NaN	NaN	NaN	2453.5	1191.1	-252.83	2555.5	1385.9	-43.626	2548.2	1366.1	-453.12	2634.7	1335.8	-381.92	2442.5	906.32	-181.14	2510	910.67	-370.69	2621.5	949.01	-180.75	2647	961.15	-249.66	2484.2	973.5	-107.44	2574.9	986.16	-390.83	2372.7	693.54	-99.632	2406.9	724.81	-94.16	2400.5	673.72	-87.979	NaN	NaN	NaN	2283.2	510.52	-129.46	NaN	NaN	NaN	2596.7	632.91	-387.04	2573.3	663.85	-391.48	2634.4	670.14	-385.73	2594.4	568.96	-421.62	2585.3	445.5	-343.34	NaN	NaN	NaN	2282	330.3	-98.706	2253.2	379.6	-119.2	2300.1	371.54	-100.96	2204.6	281.59	-85.989	2236.1	96.563	-121	2230.7	106.85	-209.4	2673.7	323.18	-368.23	2634	348.11	-349.56	2672.9	376.2	-370.21	2688.5	252.77	-410.16	2806.8	113.74	-365.27	2800.2	123.01	-277.11	2281.4	64.059	-164.82	2223.7	76.873	-205.21	2223.8	70.419	-126.45	2108.5	93.889	-170.26	2114.8	86.936	-125.93	2859.6	125.76	-329.19	2814.4	89.207	-283.07	2809.8	88.021	-362.16	2697.3	53.668	-321.06	2720	43.022	-376.29
99	0.98	2584.3	1426.9	-261.44	2619.2	1165.4	-226.94	NaN	NaN	NaN	2444.6	1189.9	-251.82	2543.1	1384.1	-41.157	2541.9	1366.1	-450.91	2627.4	1335.6	-378.57	2431.9	906.31	-183.01	2501.7	910.23	-370.8	2611.1	947.82	-179.64	2637.4	959.85	-248.18	2473.9	972.38	-108.33	2567.6	985.64	-390.08	2361.9	693.65	-101.19	2395.7	724.65	-95.219	2388.8	673.02	-88.94	NaN	NaN	NaN	2272.3	510.22	-129.83	NaN	NaN	NaN	2589.7	632.32	-387.25	2565.7	662.76	-390.68	2626.9	669.42	-385.39	2587	568.22	-421.68	2579	444.55	-343.42	NaN	NaN	NaN	2269.4	329.89	-98.611	2240.6	379.35	-119.07	2288	370.9	-100.9	2191.8	281.56	-86.652	2221.9	96.488	-120.71	2216.8	106.6	-209.21	2669.2	323.51	-367.83	2628.4	348.36	-349.59	2667.5	376.31	-370.01	2685	253.16	-410.13	2805.2	115.84	-365.14	2798.7	125.31	-277	2267.2	63.506	-164.11	2209.5	76.605	-204.94	2209.4	70.45	-126.12	2094.3	94.694	-169.76	2100.7	87.818	-125.42	2857.7	128.8	-328.86	2813.4	91.836	-283.04	2808.6	90.261	-362.03	2696.7	53.796	-321.07	2719.6	43.413	-376.13
100	0.99	2575.2	1426.3	-258.16	2609.5	1164.5	-224.4	NaN	NaN	NaN	2435.3	1189.6	-252.34	2530.5	1382.5	-38.706	2535.7	1366.2	-448.59	2620	1335.4	-374.95	2421.1	905.11	-183.49	2493.5	909.72	-371.19	2600.6	946.57	-178.48	2627.6	958.57	-246.7	2462	971.66	-108.62	2560.4	985.16	-389.39	2350.3	692.81	-102.03	2384	724.37	-96.068	2377.3	673.14	-89.68	NaN	NaN	NaN	2261.1	509.66	-130.04	NaN	NaN	NaN	2582	631.24	-386.75	2558.6	662.29	-390.88	2619.5	668.76	-385.12	2579.5	567.36	-421.58	2572.7	443.58	-343.49	NaN	NaN	NaN	2258.1	329.54	-98.694	2229.2	378.85	-119.62	2276.5	370.33	-100.86	2180.2	281.22	-86.956	2210.4	95.951	-120.45	2205.2	105.9	-208.96	2664.6	323.83	-367.86	2623.5	347.89	-349.6	2662	376.37	-370.02	2681.3	253.49	-410.25	2803.8	118.19	-365.18	2796.5	127.13	-276.92	2255.6	62.897	-163.81	2197.6	76.084	-204.99	2197.7	69.893	-125.9	2082.6	94.316	-169.15	2089.2	87.683	-124.81	2855.8	131.63	-328.64	2811.8	93.819	-283.01	2807.3	92.308	-361.83	2696	54.027	-321.06	2719.3	43.78	-376.04
